<?xml version="1.0" encoding="UTF-8"?>
<svg version="1.1" viewBox="0 0 1600 1600" width="2048" height="2048" xmlns="http://www.w3.org/2000/svg">
<path transform="translate(0)" d="m0 0h1600v1600h-1600z" fill="#FDFEFE"/>
<path transform="translate(422,216)" d="m0 0h157l1 1 1 448v252l-1 1h-38v-202l7-6 1-8-3-6-5-3h-7l-6 3-2 4v9l5 6 3 2 1 154v46l-1 1h-13l-1-198-12-12-8-7-2-3v-30l9-10 11-11 2-3 10-1 5-3 2-4v-8l-3-5-4-2h-9l-5 4-1 2v14l-12 12-1 2h-2l-1 3-7 7v15l1 21 7 8 13 13 1 2v194h-14v-188l-7-8-14-14-1-2v-57l40-40 3-5 1-42 27-27 7-6 1-2 1-82 6-5 2-5-1-7-2-4-6-3-9 1-5 6v10l4 5 4 2v80l-34 34-1 3-1 41-17 17-7 8-18 18-1 2-1 48-4-2-11-11v-50l40-40 1-2 1-35v-33l10-7 3-6-1-7-7-7v-38l11-11 8-7 7-7 1-2 1-66 6-4 3-6-2-8-3-4-3-1h-9l-5 4-2 9 3 6 6 5v62l-26 26-1 2v38l-10 3-5 6v10l5 6 4 3-1 67-22 22-5 6h-2l-2 4-10 10-1 2v48l2 6 19 19 7 8 11 12 5 4 1 2v185l-1 1h-13v-145l6-4 2-3v-9l-5-6-3-1h-8l-5 3-2 4v9l5 5 3 2v145h-13l-1-203-2-4-4-2-16-17-1-1-1-16v-67l8-7 1-55 7-5 2-4 2-12 1-38 4-5 8-7 14-14 1-57 13-12 6-5 1-2 1-12 1-59 6-4 2-8-2-7-6-4h-9l-6 5-1 8 2 5 5 4 2 1v68l-13 13-7 6-1 57-25 25-1 5v37l-5-2-9-1-5 3-3 5v7l4 6 6 3v16l-1 35-9 7v88l7 8 17 17 1 56v144l-1 1h-13v-122l6-5 1-2v-10l-5-5-2-1h-7l-5 3-3 5v6l4 6 4 3v122h-11l-1-1v-399l11-14v-86l2-7 8-7 13-12 4-5 1-75 6-4 2-4-1-9-5-5h-12l-5 6v9l4 5 4 2v74l-9 9-16 14-1 2v90l-5 6h-1l-1-55v-235z" fill="#1E5792"/>
<path transform="translate(950,325)" d="m0 0 7 6v2l3 1 97 1 7 2 4 8 8 5 10 1 10-4 3-2-1 13-5 26-7 23-10 26-9 19-12 20-12 17-13 15-12 13-12 11-11 9-15 11-14 9-18 10-27 12-21 7 231 1 2-6 7-6 5-2h9l7 3 5 5 3 6v12l-4 7-6 5-3 1h-12l-8-5-4-5-2-4-223-1 3 5 11 15 130 1 42 42 7 8 23 23 3 1h104l6-8 6-4 3-1h10l10 5 5 8v12l-4 7-6 5-5 2h-10l-8-4-4-5-2-6h-101l-12-1-27-27-7-8-17-17v-2h-2l-7-8-11-11-48-1h-70v3h-91l-2-2-5-13-1-4 32-32 7-8 6-6 16 1 8-3 5-4 4-8v-12l-3-6-1-3-10-5h-12l-8 5h-2l-4 10v11l1 5-16 16-7 8-21 21h-2l-8-11-7-7-8-6 2-6 9-17 10-18 2-2 12-1 6-3 5-6 2-3 1-10-3-9-4-5-8-4h-12l-8 4-4 5-3 8 1 10 5 8-1 4-10 17-11 20-6-1-13-5-13-2-1-1v-31l16-16 1-2h2l2-4 33-33 7-8 2-2 23-4 16-5 18-8 14-9 13-11 10-11 12-17 8-16 6-17 2-4 4 2 16 16 5 6 49 2 6 9 6 5 5 1h7l8-3 5-4 4-9v-8l-3-8-8-7-11-2-9 3-5 5-5 7h-28l-14-1-29-29 3-21z" fill="#107961"/>
<path transform="translate(370,7)" d="m0 0h216l29 29 7 8 25 25 69 1 7 6 7 8 13 13 8 7 4 3 10 1 5 12v4h-16l-8-7-21-21-4-1h-102l-8-7-22-22-1-11-4-5-2-1h-9l-6 4-2 5 1 9 2 4 4 1h9l5-1 29 29 106 1 25 25 5 4 26 1 2 1v2l4 2 7 5-3 5-6 7-5 2h-21l-32-1-31-31-131-1-3-3-4-5-3-1h-7l-5 3-3 4v10l5 6 3 1h7l5-3 4-6h129l12 13 12 12v2l-29 1h-68l-38-3-24-4-25-6-21-8-20-9-14-8-19-13-13-10-11-10-8-7-14-14-9-11-10-12-14-21-6-10z" fill="#122B63"/>
<path transform="translate(422,216)" d="m0 0h157v97l-2 2h-2v-4l-4 1-5-1v-2h-4l-1 4h-8l-5 5-3 5-12 4-3 3-3 7 4-1v3l-10 3-5 6-1 10-5-1-2 6h-1v-48l5-5 2-8-2-7-6-4h-9l-6 5-1 8 2 5 5 4 2 1v68l-13 13-7 6-1 57-25 25-1 5v37l-5-2-9-1-5 3-3 5v7l4 6 6 3v16l-1 35-9 7v88l7 8 17 17 1 56v144l-1 1h-13v-122l6-5 1-2v-10l-5-5-2-1h-7l-5 3-3 5v6l4 6 4 3v122h-11l-1-1v-399l11-14v-86l2-7 8-7 13-12 4-5 1-75 6-4 2-4-1-9-5-5h-12l-5 6v9l4 5 4 2v74l-9 9-16 14-1 2v90l-5 6h-1l-1-55v-235z" fill="#122A62"/>
<path transform="translate(913,52)" d="m0 0h55l15 9 13 10 13 12 8 7 8 8 9 11 14 18 7 11v3h-95l-6-10-7-4-9-1-10 3-5 5-4 7v12l5 10 4 2 9 3 9-1 8-5 6-9h104l9 17 8 19 7 20 3 12-11 1-7 4-4 5-3 5h-132l-8-16-8-11-5-5v-3h44l51 1 6 9 6 4 3 1h11l8-4 6-8 2-6-1-9-3-6-5-5-5-3-4-1h-7l-9 4-5 4-3 7-39 1h-69l-10-8-11-7-11-14-11-13-8-10-7-8 7-15 3-8 7-1 25-25h2v-2h2l2-4z" fill="#1E5792"/>
<path transform="translate(579,217)" d="m0 0h1v120l-1 23-1 6-2-3v-3h-4-3l-1 3-7 2-2 5-10 7-4 2v2l-5 5-1 2h-2l-1 4-1 16h-1l-1-29v-13h2l2-4 3-4 1-5-3-8-5-3h-9l-5 4-2 9 3 6 6 5v62l-26 26-1 2v38l-10 3-5 6v10l5 6 4 3-1 67-22 22-5 6h-2l-2 4-10 10-1 2v48l2 6 19 19 7 8 11 12 5 4 1 2v185l-1 1h-13v-145l6-4 2-3v-9l-5-6-3-1h-8l-5 3-2 4v9l5 5 3 2v145h-13l-1-203-2-4-4-2-16-17-1-1-1-16v-67l8-7 1-55 7-5 2-4 2-12 1-38 4-5 8-7 14-14 1-57 13-12 6-5 1-2 1-12 1-59 4-1-1 2h-2l1 46 2-4 3-1 1 1 1-9 6-7 6-2h4v-3l-4 1 1-5 3-5 8-3 6-1 1-4 5-5 1-2h9l1-3 4-1 2 2 7 1 3 2z" fill="#2295B4"/>
<path transform="translate(887,803)" d="m0 0h58l16 16v2h2l7 8 15 15 39 1 187 1 2-5 6-7 4-2 9-1 9 3 5 4 4 7 1 8-3 9-4 5-8 4h-11l-8-4-5-6-1-5-110 1 9 12 12 17 22 30-1 3h-174l-13-17-10-14-14-19-10-14-26-36-10-13z" fill="#043D2B"/>
<path transform="translate(838,677)" d="m0 0h127l5 5 10 14v2h74l2-5 5-5 7-3h9l8 4 5 6 2 5v10l-3 6-5 5-5 3-10 1-8-3-6-7-2-4h-62l4 6 12 15 5 7h166l4-7 8-5h13l7 4 4 5 2 5v10l-4 8-5 4-8 3-8-1-9-6-5-8h-153l-2 1 11 14 9 11v2h30l5 5 10 9 14 14 2 1h16l10-1 5-7 8-4h11l8 5 4 4 2 6v9l-4 8-8 6-4 1h-8l-8-4-5-6-2-5-30-1-6-4-23-23-7-1h-59l-7-6-7-8-58-58-3-4-75-1-9-10-11-12 1-5z" fill="#064234"/>
<path transform="translate(578,644)" d="m0 0h1l1 99 1 49v125l-1 1h-38v-202l7-6 1-8-3-6-5-3h-7l-6 3-2 4v9l5 6 3 2 1 154v46l-1 1h-13l-1-198-12-12-8-7-1-1v-9h2l3 7 9-2 9-3 10-5 8-1v-2l6-3 3-3 12-8 4 1 3-2-2 4-1 3 5-5 4-1 2-12z" fill="#1E5B94"/>
<path transform="translate(490,1151)" d="m0 0h24l16 5 11 6 11 10 8 13 4 11 1 5v20l-4 14-7 12-9 10-10 7-8 4-10 3-7 1h-16l-12-2-12-5-11-7-9-9-7-12-4-13v-25l4-12 6-11 9-10 10-7 11-5z" fill="#102031"/>
<path transform="translate(497,314)" d="m0 0h2v68l-13 13-7 6-1 57-25 25-1 5v37l-5-2-9-1-5 3-3 5v7l4 6 6 3v16l-1 35-9 7v88l7 8 17 17 1 56v144l-1 1h-13v-122l6-5 1-2v-10l-5-5-2-1h-7l-5 3-3 5v6l4 6 4 3v122h-11l-1-1v-399l11-14v-86l2-7 8-7 3-3 2 1-12 12v54l1-20 3-7 7-12 7-6 1-3 8-6 6-2 1-3h3 2l2-10v-3l-1-5 4-6 8-5h3v6l5-4z" fill="#1A4983"/>
<path transform="translate(828,702)" d="m0 0 4 2 14 14 3 4 75 1 36 36 7 8 32 32 51 1 8 1 7 9 13 18 5 7v2h-25l-70-1-15-16-24-24-2-1-69-1-8-10-8-11-1-4h25l6 9 5 3 4 1h7l8-3 5-6 1-3v-10l-4-8-7-4-9-1-8 3-5 6-3 4h-27l-7-1-8-11-13-19-11-14 2-4z" fill="#053F2E"/>
<path transform="translate(80,1151)" d="m0 0h20l16 4 12 7 7 7 4 7 3 8 1 7v78l-1 1h-15l-15-1v-11l-11 9-11 4-6 1h-14l-11-2-9-4-6-4-7-8-3-7-1-5v-12l3-10 6-9 10-7 13-4 12-1h23l11 1-3-12-5-5-6-3-6-1h-11l-14 2-12 5h-4l-8-22 2-3 19-7z" fill="#102032"/>
<path transform="translate(960,153)" d="m0 0h104l9 17 8 19 7 20 3 12-11 1-7 4-4 5-3 5h-132l-8-16-8-11-5-5v-3h44l51 1 6 9 6 4 3 1h11l8-4 6-8 2-6-1-9-3-6-5-5-5-3-4-1h-7l-9 4-5 4-3 7-39 1h-69v-1l28-1-13-2 1-8 5-6h2v-2h2l1-2 8 2-1-2h9l10-4 5-6z" fill="#2195B2"/>
<path transform="translate(577,559)" d="m0 0h2v85l-2 24-2 3-4 2-3 4h-2l-1-3 1-1-5-1-9 7-4 1-1 3-6 2v2l-13 4-7 4-13 4-4-1-2-3v-4h-2v7h-1v-30l9-10 11-11 2-3 10-1 5-3 2-4v-8l-3-5-4-2h-9l-5 4-1 2v14l-12 12-1 2h-2l-1 3-7 7v15l1 21 7 8 13 13 1 2v194h-14v-188l-7-8-14-14v-57l7-8 34-34v3 3l6-1 6 3 8-2h3l1-3 6-4 5-1 2-4 6-9 6-3 3-7 2-1 1-5z" fill="#2189AD"/>
<path transform="translate(939,247)" d="m0 0h127l6 10 5 4 3 1h12l4-2h3l2 20v39l-7-6-5-2h-13l-8 5-6 9h-21l-74-1-8-7-7-7-2-1-1-13h20l6 10 4 3 6 2h9l9-4 5-6 2-5v-11l-4-8-6-5-7-2-11 1-6 4-7 9h-21l-1-2-2-15-6-18z" fill="#10785D"/>
<path transform="translate(646,1151)" d="m0 0h19l13 4 10 7 8 9 5 12 2 13v74h-31l-1-1-1-68-3-10-5-6-8-4h-15l-8 4-5 5-4 7-1 4-1 68-1 1h-30l-1-1v-115l1-1h29v14l11-9 10-5z" fill="#112032"/>
<path transform="translate(842,1153)" d="m0 0h30l1 1 1 66 2 9 5 8 7 4 5 1h9l9-3 6-5 5-10 1-5 1-65 1-1h29l1 1v115l-1 1h-30v-15h-2l-2 4-10 8-10 4-7 1h-12l-10-2-12-6-7-6-6-10-3-8-2-17v-69z" fill="#102031"/>
<path transform="translate(579,217)" d="m0 0h1v120l-1 23-1 6-2-3v-3h-4-3l-1 3-7 2-2 5-10 7-4 2v2l-5 5-1 2h-2l-1 4-1 16h-1l-1-29v-13h2l2-4 3-4 1-5-3-8-5-3h-9l-5 4-2 9 3 6 6 5v62l-26 26-1 2v38l-10 3-3 3h-3v14l5 6 3 2v16l-2-4-1-7-7 1-12 9-4 6h-2v2l-5 5-3 1v2h-2l-3 10-1 7-1 17-2-3v-36l2-4 5-5 1-2 2-12 1-38 4-5 8-7 14-14 1-57 13-12 6-5 1-2 1-12 1-59 4-1-1 2h-2l1 46 2-4 3-1 1 1 1-9 6-7 6-2h4v-3l-4 1 1-5 3-5 8-3 6-1 1-4 5-5 1-2h9l1-3 4-1 2 2 7 1 3 2z" fill="#1A4781"/>
<path transform="translate(599,7)" d="m0 0h143l6 5 9 11 11 13 11 14 7 9-1 3-8 7-6 8-3 3-20-20-7-8-20-20-43-1-2-1-3-6-4-3-5-1-7 2-5 6-1 8 3 7 7 4 7-1 6-5 4-4 40 1 30 30 7 8 11 11v9l-1 4h-9l-8-7v-2l-3-1v-2l-4-2-22-22h-68l-8-7-12-13-30-30-3-4z" fill="#132E65"/>
<path transform="translate(1223,1162)" d="m0 0h18l10 3 10 6 8 7 7 11 4 11 1 7v11l-2 11-6 12-9 10-6 5-10 5-9 2h-14l-13-4-11-7-9-10-6-13-2-9v-16l2-9 6-12 9-10 8-6 9-4z" fill="#FDFEFE"/>
<path transform="translate(760,1151)" d="m0 0h22l18 4 16 7 2 1-1 6-9 17-6-2-11-5-16-3-12 1-5 2v10l4 3 16 5 20 6 11 6 5 5 4 5 3 8v15l-4 11-5 6-11 7-10 4-13 2h-10l-16-2-16-5-14-8-2-4 7-10 5-9 5 1 10 6 13 4 6 1h15l7-3 1-2v-7l-4-4-14-5-21-6-12-6-6-5-5-10-1-3v-14l3-10 7-9 9-6 11-4z" fill="#112133"/>
<path transform="translate(363,1151)" d="m0 0h27l13 4 12 7 6 5 5 6-1 4-14 11-5 4h-3l-5-6-8-5-8-2h-10l-10 3-8 6-5 8-2 7v15l4 11 7 8 6 4 11 3 10-1 8-3 5-4h2l2-4 3-2 14 10 8 6-2 5-8 8-11 7-13 5-8 1h-16l-14-3-12-5-11-8-7-8-8-16-3-12v-19l4-15 6-11 10-11 11-7 14-5z" fill="#112032"/>
<path transform="translate(1054,1123)" d="m0 0h30l1 1v30h29l1 24-1 2h-30l1 48 2 9 4 5 3 1h7l8-4 3 1 8 17-1 5-5 4-11 5-7 1h-12l-9-2-9-5-8-9-3-7-2-15v-55l-14 1-1-1v-24l1-1 14-1z" fill="#112132"/>
<path transform="translate(579,337)" d="m0 0h1l1 328v78h-2v-184h-2v19l-2 6h-2l-1 4-3 5-6 3-7 11-5 2-6 4-1 2-12 3v-2l-11-1-1-3h-1l-37 37-1 2-1 55h-1v-57l40-40 3-5 1-42 27-27 7-6 1-2 1-82 7-5-2 4-3 2v33l2-9 5-4 6-1 3 3 1 5z" fill="#2295B3"/>
<path transform="translate(548,444)" d="m0 0 4 1v80l-34 34-1 3-1 41-17 17-7 8-18 18-1 2-1 48-4-2-11-11v-50l40-40 1-2 1-35v-33l10-7 3-6 1 3h2l1-14 7-7 8-7 5-4 8-6 4-1 2 5 1-33-3-1z" fill="#2294B3"/>
<path transform="translate(838,677)" d="m0 0h127l5 5 8 11-1 2-4-5 2 8 1 6 10 1-1 3-3 1h-8v2l-6 2-2 5-10 4-5 4-5-1-6-2-8-7 7 8 31 31-1 2-38-38-3-4-75-1-9-10-11-12 1-5z" fill="#095540"/>
<path transform="translate(712,466)" d="m0 0h92l-3 5-4 2-2 4-25 25-7 8-15 15-1 36-1 1-24 3-11 3v-65z" fill="#1B9390"/>
<path transform="translate(986,1109)" d="m0 0h31l1 39v121l-1 1h-31z" fill="#112133"/>
<path transform="translate(476,715)" d="m0 0 8 6 10 9 1 2v185l-1 1h-13v-145l6-4 2-3v-9l-5-6-3-1h-8l-5 3-2 4v9l5 5 3 2v145h-13v-116l1-75h1l3 10 5 1 7-1 3-1v-2l3-1 1-4-3-5v-2h-2l-4-5z" fill="#237C9E"/>
<path transform="translate(993,76)" d="m0 0 6 2 9 6 4 1 13 13 9 11 14 18 7 11v3h-95l-5-8 1-2 5 8-3-9h-2l-6-8 1-5 3-3 2-4 6-4 3-3 6-4 9-11 8-9z" fill="#1E7CA8"/>
<path transform="translate(575,793)" d="m0 0h4v124h-36v-101l1-10 2 3 1 3 2-2 5-1 4-1 5-1 2-6 6-6z" fill="#11275F"/>
<path transform="translate(578,585)" d="m0 0h1v59l-2 24-2 3-4 2-3 4h-2l-1-3 1-1-5-1-9 7-4 1-1 3-6 2v2l-13 4-7 4-13 4-4-1-2-3v-4h-2v7h-1v-30l9-10 11-11 2-3 10-1 5-3 2-4 1-11 5 4 6-1 9-4 6-7 6-5 1-2h3z" fill="#1E7DA8"/>
<path transform="translate(578,644)" d="m0 0h1v28l-2 17h-2v3l-10 3-6 6-5-1-4-4h-3l-5-3h-7l-6 3-2 4v9l5 6 3 2 1 154v46l-1 1h-13l-1-198-12-12-8-7-1-1v-9h2l3 7 9-2 9-3 10-5 8-1v-2l6-3 3-3 12-8 4 1 3-2-2 4-1 3 5-5 4-1 2-12z" fill="#1D6196"/>
<path transform="translate(979,65)" d="m0 0 6 1h3l4 2 11 9 6 6-1 2-10-7-5-1-5 3-7 8-11 13-5 3h-2l-2 4-5 2-2 6-3 2 1 5 4 5v2h2l4 8 2 2-4-1-4-7-9-5-9-1-10 3-5 5-4 7v12l5 10 4 2 5 2 1 2 9 1v1h-10l-7-2-3 1v2h-2l-2 4-2 2-1 4 1 2h-2v2l15 1-2 2h-29l-12-9-8-5-1-3h2l-4-6 1-5 4-4 1-5 8-10 20-16 11-11 9-6 5-5 9-6 10-8 7-8 12-12z" fill="#247197"/>
<path transform="translate(452,724)" d="m0 0h1l1 137v57h-13v-122l6-5 1-2v-10l-5-5-2-1h-7l-5 3-3 5v6l4 6 4 3v122h-11v-162l2-1 1 2 7-1 9-5 7-8 2-7z" fill="#1E7CA8"/>
<path transform="translate(173,1152)" d="m0 0h31v117l-1 1h-29l-1-1z" fill="#101F31"/>
<path transform="translate(1497,1161)" d="m0 0h15l10 3 10 6 8 9 7 13 3 13v4l-3 1h-88v-11l5-13 6-9 5-5 8-6 10-4z" fill="#FDFEFE"/>
<path transform="translate(844,641)" d="m0 0h95l5 5 6 8 34 1 8 6 3 3 7 11 1 4-3 3-5-1-8-7-7-8h-15l-13 2h-110l-2-1-1-25z" fill="#0C6047"/>
<path transform="translate(960,56)" d="m0 0h9l5 2-1-2 5 2 10 7-1 3-5-2-5 1-7 8-8 7-11 12-6 4-5 4-8 5-4 5-9 6-12 12-9 7-6 5h-2l-2 4-6 8-1 4-2 3h-2v5l3 4v2l-4-1-9-11-2-4h2l-6-10-1-5 7-4 4-6 7-8 5-2v-2h2v-2l4-2 3-6 5-3 7-5v-4l6-3 8-7 4-1 4-4h4v-2l8-7 11-12z" fill="#1D5E95"/>
<path transform="translate(494,1178)" d="m0 0h15l10 4 8 8 5 10 1 5v12l-4 11-6 8-8 6-9 3h-11l-9-4-8-6-5-8-2-6-1-11 2-11 5-10 8-7z" fill="#FDFEFE"/>
<path transform="translate(913,201)" d="m0 0h44l51 1 6 9 6 4 3 1 11 1-4 2v4l-6 8-4 2 18 1 28 1v1h-132l-8-16-8-11-5-5z" fill="#2295B4"/>
<path transform="translate(1497,1153)" d="m0 0h15l12 3 10 5 11 10 7 11 5 14 1 7v13l-7 1h-93l4 15 7 13 7 7 10 6 7 3 5 1h18l13-4 10-6 7-6 4 1 3 3-2 4-8 7-12 6-15 4h-19l-14-4-11-6-9-8-7-11-4-10-2-8v-24l5-16 7-11 5-6 11-8 13-5zm0 8-10 3-10 6-5 4-7 10-5 12-1 3v11h88l3-1-1-9-3-10-6-11-8-9-10-6-10-3z" fill="#132E45"/>
<path transform="translate(1059,629)" d="m0 0 7 6 26 26 8 7 23 23 3 1h104l6-8 6-4 3-1h10l10 5 5 8v12l-4 7-6 5-5 2h-10l-8-4-4-5-2-6h-101l-12-1-27-27-7-8-17-17v-2h-2l-7-8-3-5-1-2 7 2z" fill="#116861"/>
<path transform="translate(1228,1153)" d="m0 0h10l12 2 9 4 10 6 10 10 6 10 4 11 1 5v22l-3 11-6 12-9 10-9 7-10 5-12 3h-18l-12-3-13-7-10-9-7-11-5-13-1-6v-19l3-12 8-16 10-10 14-8 10-3zm-5 9-10 3-10 6-9 9-6 10-3 8-1 6v16l3 12 6 11 8 9 11 7 13 4h14l9-2 12-6 11-11 6-10 3-9 1-7v-11l-2-11-7-14-8-9-11-7-7-3-5-1z" fill="#132C43"/>
<path transform="translate(882,19)" d="m0 0 9 1 36 12 21 9 5 3v1l-42 1-8 7-46 46-4 1-1-1-2-12-5-12 1-5 13-18 8-12 11-16z" fill="#1A4A82"/>
<path transform="translate(939,247)" d="m0 0h127l2 3-1 3-1-4-16 1 1 1v5l-5 7-10 5-14 9-6 3-5-1h-1l3 8v7l-4 9-1-2 2-5v-11l-4-8-6-5-7-2-11 1-6 4-7 9h-21l-1-2-2-15-6-18z" fill="#1B9390"/>
<path transform="translate(631,466)" d="m0 0h68v87h-2l-8-11-16-21-9-12-10-13-13-16-8-10z" fill="#2295B3"/>
<path transform="translate(1366,1153)" d="m0 0h15l12 3 9 5 9 8 5 8 4 14v78h-9l-1-76-3-10-7-11-9-6-8-3-6-1h-9l-13 3-9 6-4 2-2 4-6 10-3 10-1 72-2 1h-6l-1-1v-114l1-1h6l2 2 1 20 6-8 9-8 10-5z" fill="#132C44"/>
<path transform="translate(579,217)" d="m0 0h1v120l-1 23-1 6-2-3v-3h-4-3l-1 3-7 2-2 5-10 7-4 2v2l-5 5-1 2h-2l-1 4-1 16h-1l-1-29v-13h2l2-4 3-4 1-5-3-8-5-3h-9l-5 4-3 9h-1v-7l6-7 6-2h4v-3l-4 1 1-5 3-5 8-3 6-1 1-4 5-5 1-2h9l1-3 4-1 2 2 7 1 3 2z" fill="#1A4781"/>
<path transform="translate(422,561)" d="m0 0h1l1 42 1 24 2-4 1-18h1l1 87 7 8 17 17 1 56v144h-1l-1-56-1-125-3 9-8 8-11 5-5-1-1-1-1 161h-1z" fill="#2194AF"/>
<path transform="translate(755,7)" d="m0 0h36l33 1 1 1v42l-2 4-18-1-9 2h-5l-10-13-11-13-11-14-4-5z" fill="#132F66"/>
<path transform="translate(495,706)" d="m0 0 7 6 7 7 5 3v195h-12v-188l-7-8-10-10h3l3 3 4-1 1-3z" fill="#1A4681"/>
<path transform="translate(497,458)" d="m0 0h1l1 13v23l-10 3-3 3h-3v14l5 6 3 2v16l-2-4-1-7-7 1-12 9-4 6h-2v2l-5 5-3 1v2h-2l-3 10-1 7-1 17-2-3v-36l2-4 5-5 1-2 2-12 1-38 4-5 6-4-2 4-5 5v4l3-5 7-7 5-2 2-4 5-5h2v-2h2v-3l5-2 3 2 1 4z" fill="#1E5892"/>
<path transform="translate(828,702)" d="m0 0 4 2 14 14 3 4 75 1 1 2h-20l-18 1 15 1 7 2 1 6-4 4-10 3v-3h-2l-1 5-6 1-3-2-3 6v2 4l-9 2h14l3-3-2 5-1 1h-27l-7-1-8-11-13-19-11-14 2-4z" fill="#095440"/>
<path transform="translate(483,526)" d="m0 0 5 1 3 11v38l-1 11h-1l-1-19-8 1-7 8-9 7-8 11-4 6-5 9-3 6h-2v13l2 4-2 3v3l3 1 1-10 4-3-1 5-1 26-1 13h-1l-1-22-1-5-2 1-2 13h-1l-2-29v-20l7-8 1-55h2v38l1-16 3-11 2-4h2v-2l5-5 3-1v-2h2l2-5 7-6z" fill="#218AAC"/>
<path transform="translate(578,724)" d="m0 0h1v69l-7 2-6 6-3 6-5 2-2 2-1-2-2 2-5 1-2 1-1-4-1 7h-1v-61l1-11h1l2 8 2 3 5-1 4-8 9-7 4-2 5-3z" fill="#1A4580"/>
<path transform="translate(546,474)" d="m0 0h2l2 5 1 25v19l-11 12h-2l-1 3-8 7-6 5 2-4 6-7h2v-2h2v-2l5-5h2v-2l4-3v-3l-10 3-1 3-3 3-5 3-5 5-5 2-5 5-3 1-1 3-4 4-1 9-2 1v-41l9-9 3-4v3h2l1-14 7-7 8-7 5-4 8-6z" fill="#1E7CA7"/>
<path transform="translate(1070,171)" d="m0 0h2l8 19 3 10h2l6 19v2l-11 1-7 4-4 5-2 4h-31l-19-1 3-2 5-3 4-6v-2l-2-2 7-1v-2l8-4 6-8 1-2h2v-11l-1-6 5 3 7-1 7-8h2z" fill="#1B928F"/>
<path transform="translate(493,739)" d="m0 0h1v179h-13v-145l6-4 2-3h2l-1-12h2v-12z" fill="#1A4983"/>
<path transform="translate(535,438)" d="m0 0 6 1 2 1 1-2 5 7 2 1v58h-1l-1-25-1-5-7 4h-2l-1 3-6 4-7 7-8 7-1 11-1 3h-2l-2-10-7-7v-38l11-11 2 1-10 10v15l2-9 6-6 2-4 4-1 1-4h3l2-5 4-2z" fill="#1D6396"/>
<path transform="translate(573,521)" d="m0 0 4 2 1 16-2 14-7 10-3 5-10 8-1 2h-2v2l-9 4-5 4-9 2-4-3-1-6 1-18 7-8h2v-2l5-5 20-18 4-5 6-3z" fill="#27A0BE"/>
<path transform="translate(1068,685)" d="m0 0h9l8 4 5 6 2 5v10l-3 6-5 5-5 3-10 1-8-3-6-7-2-4-62-1v-1l11-1-11-2v-3l2-1 9-1h44l-65-1-1-2h74l2-5 5-5z" fill="#0D5F53"/>
<path transform="translate(712,466)" d="m0 0h92l-3 5-4 2 3-4h-37l2 4-6 7-6 5-1 2h-2l-2 4-9 8-5 5-8 6-8 2h-4l-2 53h-1v-62z" fill="#219AAC"/>
<path transform="translate(1019,100)" d="m0 0 5 2h1l1-2 10 11 14 19 5 8v3h-95l-5-8 1-2 5 8h43l-9-2v-7l3-5 8-11 7-9z" fill="#2194B3"/>
<path transform="translate(483,500)" d="m0 0 2 1-1 2v10l5 6 4 3-1 67-22 22-5 6h-2l-2 4-10 10-1 2-1 25h-1v-26-3l-1 1-2 10-4-1 1-5v-3l-1-2 1-13h2l3-9 7-10 8-12 9-8h2l2-4 5-5 5-1 3 1 2 6v-52l-7-6-1-2v-12z" fill="#2194B3"/>
<path transform="translate(283,1196)" d="m0 0h9l1 1v26h-58l-1-1v-25z" fill="#112135"/>
<path transform="translate(832,9)" d="m0 0 17 2 25 5 1 2-11 16-13 18-10 15-4-1-9-7 1-5 2-8v-35z" fill="#132D64"/>
<path transform="translate(578,612)" d="m0 0h1v32l-2 24-2 3-4 2-3 4h-2l-1-3 1-1-5-1-9 7-4 1-1 3-6 2v2l-13 4-7 4-13 4-4-1-2-3v-4h-2v-18l2 3 1 6h14l13-6h4v-2l6-4 6-7h2v-2l12-7 9-10 5-5 2-5z" fill="#246F96"/>
<path transform="translate(571,394)" d="m0 0 5 1 2 9 1 9v66h-1l-2-13h-6l-6 4-2 9-1 22h-1v-55l5-4 2-7-1-7-2-4-6-3h-9l2-2-5-1v-2h-2l2-8 6-5 12-3z" fill="#1D6095"/>
<path transform="translate(1e3 155)" d="m0 0h23l6 2-1 2 1 7v2l-8 4-9 5-9 10h-37l-3-3 7-8 8-9h2l2-4 4-2v-2l6-3z" fill="#27A0BE"/>
<path transform="translate(1245,679)" d="m0 0h10l10 5 5 8v12l-4 7-6 5-5 2h-10l-8-4-4-5-1-4h2l-2-6h-2l-2-3-6-1-97-1-5-3-2-4 5 4 3 1h104l6-8 6-4z" fill="#0E5F56"/>
<path transform="translate(966,202)" d="m0 0h42l6 9 6 4 3 1 11 1-4 2v4l-6 8-4 2h-84l-2-4 5-6 4 1h-2l3 6 4 1 9-2 4-3 7-2 2-4 10 2 9-5 2-2 1-4 3-2-3-3 1-2h13 1l-41-1z" fill="#219AAC"/>
<path transform="translate(422,561)" d="m0 0h1l1 42 1 24 2-4 1-18h1l1 87 7 8 5 6v2l4 6-1 5-12 12-6 2h-3l-1 5h-1z" fill="#2298B3"/>
<path transform="translate(472,792)" d="m0 0h1v125h-11v-85l1-29 5-1 4-2z" fill="#1A4580"/>
<path transform="translate(77,1220)" d="m0 0h34l1 1v10l-4 9-5 5-8 4-6 1h-10l-8-3-6-7-1-2v-7l3-6 6-4z" fill="#FDFEFE"/>
<path transform="translate(685,469)" d="m0 0h9l2 2v19l-3 7-4 6-4 5-4 4h-4v-2l-6 1-11-12-3-6 3-9h2l2-4 9-8 3-2z" fill="#27A0BE"/>
<path transform="translate(1144,575)" d="m0 0h13l7 3 4 6 1 3v12l-4 7-6 5-3 1h-12l-8-5-4-5-2-6-115-1v-1l36-1 1-1-13-2v-1l93-1v-2l2 1 5 2 2 8 5 5h8l2-1 2-4v-7l-2-6 3-3-4-4-11-1z" fill="#0D6148"/>
<path transform="translate(512,807)" d="m0 0h1l1 7v103h-12v-57l1-40 2 1v3l5-5 1-10z" fill="#122861"/>
<path transform="translate(466,478)" d="m0 0v3l-6 6-1 34 4-9 5-6 9 1 4 4 6 8 4 3v16l-2-4-1-7-7 1-12 9-4 6h-2v2l-5 5-3 1v2h-2l-3 10-1 7-1 17-2-3v-36l2-4 5-5 1-2 2-12 1-38 4-5z" fill="#1D6196"/>
<path transform="translate(908,150)" d="m0 0h5l6 9h3l2 4 4 2 5 2 1 2 9 1v1h-10l-7-2-3 1v2h-2l-2 4-2 2-1 4 1 2h-2v2l15 1-2 2h-29l-6-5 1-2-8-7v-7l1-2h2l1-3 7-5 1-2 7-4z" fill="#1E7CA7"/>
<path transform="translate(452,810)" d="m0 0h1v107h-11v-95l2 2 7-4z" fill="#1A4580"/>
<path transform="translate(835,135)" d="m0 0 4 2 13 14 9 11 4 6-9-2-9-3-20-4-6-1-33-1v-3l8-10h18l9-2 9-5z" fill="#1A4C84"/>
<path transform="translate(423,517)" d="m0 0 1 2v30l1-3 7-1 2 1v-2l6 2v16l-1 35-10 8-1 18-3 7h-1l-2-69v-43z" fill="#1D6096"/>
<path transform="translate(493,660)" d="m0 0 2 1-2 2v17l1 21 7 8 10 10h-3l-12-12 1 4-3 4-4-1-3-2 15 15 1 2v31l-1 157h12v-193h1v194h-14v-188l-7-8-14-14v-41l2 2 1 6 2-4v-2l5-5z" fill="#2087AB"/>
<path transform="translate(939,247)" d="m0 0h127v1l-86 1-2 1 2 4-3 3-2 7-4 4-5 1-2 5-7 6h-5l-2-2v3l19 1 2-4v3l-2 3h-21l-1-2-2-15-6-18z" fill="#219AAC"/>
<path transform="translate(186,1101)" d="m0 0 9 1 6 4 4 5 2 6-1 9-4 6-5 4-3 1h-11l-7-4-4-5-1-3v-11l3-6 7-6z" fill="#112336"/>
<path transform="translate(483,526)" d="m0 0 5 1 3 11v17l-2-2-1-5h-5v2l-9 6-3 3-3 5-4 5-8 7-6 9-2 15-2 1 2-33 3-11 2-4h2v-2l5-5 3-1v-2h2l2-5 7-6z" fill="#1E7CA8"/>
<path transform="translate(1024,155)" d="m0 0h38l5 8 4 10v6l-9 9-7 1-4-3 1 5v8l-2 3v-9l-2-9v-2l-5-5-6-4-13-2 5-5-1-8 1-1-5-1z" fill="#219AAC"/>
<path transform="translate(844,641)" d="m0 0h95l3 2-1 2-1-1-99-1v23l114-1-3-2 2-5-4-1v-2h34l8 6 3 3 7 11 1 4-3 3-5-1-8-7-7-8h-15l-13 2h-110l-2-1-1-25z" fill="#1A858B"/>
<path transform="translate(533,812)" d="m0 0h1v105h-11v-90l1-6h1l1 10 1 2 4 1z" fill="#122860"/>
<path transform="translate(545,502)" d="m0 0 5 1 1 1v19l-11 12h-2l-1 3-8 7-6 5 2-4 6-7h2v-2h2v-2l5-5h2v-2l4-3v-3l-10 3-1 3-3 3-5 3-5 5-5 2-5 5-3 1-1 3-4 4-1 9-2 1v-23l2-7h2l2-5 5-2 6-4h2v-2l11-7h2l1-3 9-5z" fill="#2088AC"/>
<path transform="translate(492,823)" d="m0 0h1l1 19v75h-12v-76l1 2 6-2 2-1z" fill="#11275F"/>
<path transform="translate(533,721)" d="m0 0h1l1 86v66h-1l-1-46-2 7-5-1-2-6h-1v-87l1-8h1l1 24 2 12 2 2 1-2 1-35z" fill="#1A4681"/>
<path transform="translate(804,83)" d="m0 0h10l7 4 5 7 1 7-3 8-8 7-4 1h-7l-7-4-4-6-1-3v-7l3-8 6-5z" fill="#1A4983"/>
<path transform="translate(987,204)" d="m0 0h6l3 6-4 1-1 5-3 3-8 4-10-3-2 5-9 3-1 2-10 2h-5l-1-5-2-1v-3l3-5 5-5 5-4 6-2 16-2h11z" fill="#27A0BE"/>
<path transform="translate(698,468)" d="m0 0h1v85h-2l-8-11-4-5-3-7-8-12-8-10 1-2 4 4h6v2l6-2 4-6 3-3 4-7 2-11h1v27z" fill="#2199AC"/>
<path transform="translate(1010,92)" d="m0 0h5l4 3 1-2 5 5 2 7-6-4-5 2-6 7-6 8-7 9-2 10 9 1 2 2h-18l-13-3 1-7 5-6h2l2-7h2v-2l8-6 9-11z" fill="#2189AD"/>
<path transform="translate(949,296)" d="m0 0h20l6 10 4 3 6 2h9l8-2-3 3-4 1h-12l-2-1v2h2l2 5-4 2 15 1h66l6-9 2 1-8 11h-21l-74-1-8-7-7-7-2-1z" fill="#1C9496"/>
<path transform="translate(456,695)" d="m0 0 4 2 3 3 5 3 12 13v3l-3-2 3 3v2h2l4 8-2 4h-3v2l-3 2-12 1-3-7-1 70h-1l-1-87-6-8-4-4 1-2 5 3 3-4z" fill="#1E80A8"/>
<path transform="translate(959,154)" d="m0 0h17l15 1v1l-14 1-9 4h-2v2l-9 5-3 3-8 7-4 4v3l7 1 12 1v1l-20 1h-13v-1l-13-2 1-8 5-6h2v-2h2l1-2 8 2-1-2h9l10-4 5-6z" fill="#2189AD"/>
<path transform="translate(424,829)" d="m0 0h1l2 6h4l1-5h1v87h-9z" fill="#1A4580"/>
<path transform="translate(462,747)" d="m0 0 2 1v2l6-1-4 8v9l5 5 3 2v145h-13v-116zm10 45v8l-4 2-5 1-1 29v85h11v-125z" fill="#1D5E92"/>
<path transform="translate(1126,694)" d="m0 0h96l7 2 1 3h2l3 7-3-1v-3l-113-1-1-2h13l4 1v-2l-2-1 4-1-11-1z" fill="#033D27"/>
<path transform="translate(1028,110)" d="m0 0 5 2 6 7 9 14v5l-13 1-22-1-3-1 1-5 13-19z" fill="#27A0BE"/>
<path transform="translate(749,620)" d="m0 0h10l10 4 10 9 5 8 2 6v18l-2 2-10-13-12-16-11-13z" fill="#137D6C"/>
<path transform="translate(543,456)" d="m0 0h5l2 4v19l-2-3v-2l-7 4h-2l-1 3-6 4-7 7-8 7-1 11-1 3h-2l-2-10-1-3 2-1-2-4 1-5 6-7 8-8h2l1-4 6-4 5-6h2z" fill="#247097"/>
<path transform="translate(423,788)" d="m0 0h2l5 5 4 3v122h-11zm1 41v88h9v-87l-2 1v4l-5-1-1-5z" fill="#1D5D95"/>
<path transform="translate(1145,573)" d="m0 0h9l7 3-2 1h-2l3 5-3 3 2 5v7l-3 5-2 1h-8l-5-4-2-4v-6l-6-1-1-5 6-7z" fill="#157E73"/>
<path transform="translate(472,846)" d="m0 0h1v71h-10v-51l3-1 4-6z" fill="#122860"/>
<path transform="translate(452,773)" d="m0 0h1v37l-1 10-4 3h-3l-1 2-1-1-1 93h11v-56h1v57h-13v-122l8-6 1-12z" fill="#1D5A93"/>
<path transform="translate(495,706)" d="m0 0 7 6 7 7 5 3v32h-1l-1-6-2 9-2 2-4-1-2-29-7-8-10-10h3l3 3 4-1 1-3z" fill="#1D5592"/>
<path transform="translate(426,695)" d="m0 0 5 2v2l4 2 9 9 2 4-1 5-12 12-6 2-2-1v-35z" fill="#27A0BE"/>
<path transform="translate(523,364)" d="m0 0 3 2v62l-28 28 1-4 3-5h-4l-1-4h2v-5l8-9h3l3-6 5-3 4 3 1-6z" fill="#1D6096"/>
<path transform="translate(479,519)" d="m0 0 7 1 5 2v16l-2-4-1-7-7 1-12 9-4 6h-2v2l-5 5-3 1v2h-2l-3 10-1 7-1 17-2-3v-16l1-2 1-14 2-5 5-4 7-12 3-1 7-8z" fill="#246F96"/>
<path transform="translate(570,465)" d="m0 0 6 1 3 13v20l-2-4-1-4-5 2-3 3-4 2-2 4-1 15h-1v-16l1-22 2-9 5-4z" fill="#1E7CA8"/>
<path transform="translate(579,337)" d="m0 0h1v182l-3 1-1-12-1-2-5 1-2 2h-3l-3 14-1 5h-1v-11l1-15 4-6 5-3 4-3 3 1 1 4z" fill="#208CAC"/>
<path transform="translate(1144,575)" d="m0 0h13l7 3 4 6 1 3v12l-4 7-6 5-3 1h-12l-4-3 3-1-1-4 2-3 2 1h8l2-1 2-4v-7l-2-6 3-3-4-4-11-1z" fill="#106B5A"/>
<path transform="translate(452,866)" d="m0 0h1v51h-11v-19l1-25 2 2h4l1-2h2z" fill="#122860"/>
<path transform="translate(574,437)" d="m0 0 3 1 2 13v28h-1l-2-13h-6l-6 4-2 9h-1v-17l5-16 6-8z" fill="#257097"/>
<path transform="translate(712,466)" d="m0 0h92l-3 5-4 2 3-4h-47l-25 1-1 3-7 4-5 2-3 86h-1v-62z" fill="#2297B2"/>
<path transform="translate(452,718)" d="m0 0h1l-1 18-3 9-8 8-11 5-5-1-1-2v-16l2 2 1 3h6l6-5h2l2-4h2l2-4 2-2 2-10z" fill="#2189AD"/>
<path transform="translate(913,52)" d="m0 0 1 3-35 35-9 11-1 5-9 6h-2v2l-3 3-3 7-3 3 1 7 2 4-5-2-5-6 7-15 3-8 7-1 25-25h2v-2h2l2-4z" fill="#1C6490"/>
<path transform="translate(950,325)" d="m0 0 7 6v2l3 1 97 1 7 2 1 5-3-3v-2h-77l-26-1 2 2v2h-2v2l-5 3-6-1 3 6 11 11-1 2-15-15 3-21z" fill="#1D959A"/>
<path transform="translate(497,314)" d="m0 0h2v68l-13 13-7 6-1 57-3 2 1-11 1-50v-3l-1-5 4-6 8-5h3v6l5-4z" fill="#1B598D"/>
<path transform="translate(425,874)" d="m0 0h6l1 1 1 9v33h-9v-42z" fill="#11275F"/>
<path transform="translate(796,144)" d="m0 0h7l2 2h-8l-6 8 28 1 10 2h8l-2-4v-3l7-2 5 3 4 4v2h3l-2-4 5 4 8 10-3 1-15-5-20-4-6-1-33-1v-3z" fill="#1E6396"/>
<path transform="translate(1059,629)" d="m0 0 7 6 20 20 2 5-1 2-4 1 3 3-1 2-18-18v-2h-2l-7-8-3-5-1-2 7 2z" fill="#106957"/>
<path transform="translate(939,247)" d="m0 0h127v1l-86 1-36 2 3 11 2 9 1 10 19 1 2-4v3l-2 3h-21l-1-2-2-15-6-18z" fill="#2299B2"/>
<path transform="translate(452,740)" d="m0 0h1v33l-2 5-1 12-2 1v-12l-5-5-2-1h-7l-5 3-3 5v6l1 4-2-1v-2h-2v-24l2 3 1 2 10-1 10-3 4-5z" fill="#237299"/>
<path transform="translate(423,517)" d="m0 0 1 2v30l1-3 7-1 7 2v13h-4-7l-2 5-2 11h-1l-1-15v-43z" fill="#1D5792"/>
<path transform="translate(914,54)" d="m0 0h37v1l-23 2-9 5-2 2 1 2-14 3-4 2-1 2h-2l-2 9-4 3-5 1-6 5-2-1z" fill="#1A4580"/>
<path transform="translate(868,25)" d="m0 0v3l-13 19-8 11-6 9-4-1-9-7 1-5 2-8h1v7l-2 5 7 4 2-1v-9l2-6h2l2-4 4-2v4l4 1 14-19z" fill="#1B5087"/>
<path transform="translate(1228,842)" d="m0 0 7 1 4 4 1 7-4 6-2 1h-7l-5-5-1-7 3-5z" fill="#FDFEFE"/>
<path transform="translate(976,657)" d="m0 0h9l5 3 4 2 8 13 1 4-3 3-5-1-8-7-5-6-1-5 2-4-7-1z" fill="#116D5E"/>
<path transform="translate(493,739)" d="m0 0h1v36h-1l-1 17-7-1-2-4v-12l-1-1v12h-1v-13l6-4 2-3h2l-1-12h2v-12z" fill="#1D5592"/>
<path transform="translate(1248,689)" d="m0 0 7 1 4 4 1 6-3 5-5 3-6-1-5-6v-6l5-5z" fill="#FDFEFE"/>
<path transform="translate(1068,696)" d="m0 0h7l6 5v8l-4 4-2 1h-6l-5-4-1-2v-7z" fill="#FDFEFE"/>
<path transform="translate(1146,584)" d="m0 0h7l5 4 1 2v7l-4 4-2 1h-6l-5-4-1-2v-7z" fill="#FDFEFE"/>
<path transform="translate(565,440)" d="m0 0v3l-4 3v84l-13 12-9 8-2 3h-2v2l-10 8-1 42-2 1 1-44 27-27 7-6 1-2 1-82z" fill="#2198AE"/>
<path transform="translate(1146,806)" d="m0 0 7 2 3 4v7l-4 5-6 1-5-3-2-2v-9l4-4z" fill="#FDFEFE"/>
<path transform="translate(1193,737)" d="m0 0h7l5 4 1 7-3 5-5 2-6-1-4-5v-7z" fill="#FDFEFE"/>
<path transform="translate(1046,478)" d="m0 0h2l-2 5-3 6-13 15-12 13-6 5-5 3-2-1 6-8 1-3h2l2-4 3-3 5-3 3-1 2-4 5-5h2v-2h2l2-6z" fill="#116E60"/>
<path transform="translate(1141,914)" d="m0 0 3 2-1 3h-174l-2-4 3 2h121l50-1z" fill="#1C6295"/>
<path transform="translate(459,635)" d="m0 0h1l1 35 1 4v7h5l1-17v-13l3-7 2-1-2 13v34l-1 2-4-2-7-8z" fill="#2088AC"/>
<path transform="translate(634,467)" d="m0 0h25l12 1v1l-20 2-2 7 1 6 3 5-1 2-6-7-5-4-5-7z" fill="#2089AD"/>
<path transform="translate(490,683)" d="m0 0h1l1 15 1 4 8 7 10 10h-3l-12-12 1 4-3 4-4-1-3-3-5-3-2-2v-14l2 3 1 9 5-2 1-14z" fill="#237497"/>
<path transform="translate(698,468)" d="m0 0h1v85h-2l-8-11-3-6 1-2 2 2 5-1 1-2 1-17h1z" fill="#2198AC"/>
<path transform="translate(438,563)" d="m0 0h1v34l-9 7-5-2v-11l5-8 4-1 2 2 1 12z" fill="#237797"/>
<path transform="translate(548,444)" d="m0 0 4 1v80l-34 34-1 3-1 40h-1v-41l2-5 18-18 8-7 7-8 1-77-3-1z" fill="#2198AE"/>
<path transform="translate(744,535)" d="m0 0h1l1 26-20 1-13 4v-10h1v6l15-4 5-3 6-7h2l1-11z" fill="#10785D"/>
<path transform="translate(841,740)" d="m0 0 4 2 9 9 5 1v2l11 2 1 1h15l3-3-2 5-1 1h-27l-7-1-8-11-3-7z" fill="#0F5359"/>
<path transform="translate(599,7)" d="m0 0h143l6 5-1 2-4-4-101-1h-42l-1 2z" fill="#1C538D"/>
<path transform="translate(1143,1253)" d="m0 0h6l5 5v6l-4 4-6 1-5-5v-7z" fill="#132D44"/>
<path transform="translate(495,706)" d="m0 0 7 6 6 6 1 5-3 3h-6l-15-15h3l3 3 4-1 1-3z" fill="#1D5D94"/>
<path transform="translate(916,203)" d="m0 0h47v1l-25 1-10 4v6l3 6-1 2-5-5-6-8-3-5z" fill="#2189AD"/>
<path transform="translate(1068,253)" d="m0 0 5 5 4 3 3 1h12l4-2h3l2 20v39l-7-6-5-2h-13l-6 2 3-3 5-2h9l9 4 4 3-1-29-1-12v-12l-8 3h-9l-8-4-5-6z" fill="#1F98A4"/>
<path transform="translate(494,501)" d="m0 0h6l5 5-1 5-5 4-7-1-3-4 1-6z" fill="#1D5C94"/>
<path transform="translate(422,561)" d="m0 0h1l1 42 1 24 3-4v9l-1 11-1 2h-2l-1 2-1-27z" fill="#2095A8"/>
<path transform="translate(712,466)" d="m0 0h92l-3 5-4 2 3-4-87-1v31h-1z" fill="#229AAF"/>
<path transform="translate(1022,171)" d="m0 0h12l8 4 6 5 2 4-4-1-5-5-5-3-4-1h-7l-9 4-5 4-3 7h-11v-1l7-1 8-10 7-5z" fill="#2295B3"/>
<path transform="translate(661,27)" d="m0 0 7 1 2 2v6l-2 3-6 1-4-2-1-7z" fill="#153D72"/>
<path transform="translate(939,247)" d="m0 0h127v1l-124 1-2 2z" fill="#229BB0"/>
<path transform="translate(491,730)" d="m0 0 3 3-1 11-1 10h-2l1 2v10h-1l-1-9-5-6v-2l-12-1v-1h14l2-4 3-7z" fill="#1D6798"/>
<path transform="translate(456,695)" d="m0 0 4 2 3 3 5 3v3l-1 3-4 2-6-1-7-7 1-2 5 3 3-4z" fill="#2089AC"/>
<path transform="translate(545,119)" d="m0 0 7 1 1 2v6l-5 3-6-2-1-6z" fill="#153E71"/>
<path transform="translate(497,593)" d="m0 0 3 1-5 4-4 5-6 7-17 17-2-3z" fill="#2191AF"/>
<path transform="translate(573,55)" d="m0 0h7l3 3-1 6-3 2h-6l-2-2v-7z" fill="#15386C"/>
<path transform="translate(975,546)" d="m0 0m-1 1m-2 1h2l-1 5-14 8-10 4-3-1 11-7 7-5h2v-2z" fill="#116D5D"/>
<path transform="translate(1078,786)" d="m0 0 4 2 19 19 2 1h16l10-1 5-7 3-2 3 1-8 7-3 4h-27l-8-7-16-16z" fill="#1E6F99"/>
<path transform="translate(913,201)" d="m0 0h44l6 1v1h-47l3 4-1 2-5-5z" fill="#2399B6"/>
<path transform="translate(462,747)" d="m0 0 2 1v2l6-1-4 8-1 8h-2v35h-1z" fill="#1D6395"/>
<path transform="translate(553,427)" d="m0 0h5l3 3v5l-3 3h-6l-3-5 2-5z" fill="#1E6596"/>
<path transform="translate(1038,118)" d="m0 0 4 1 9 13 4 6v3l-14-1 1-2h6l-3-9-7-10z" fill="#2296B3"/>
<path transform="translate(966,202)" d="m0 0h42l6 9 6 4 3 1 11 1-4 2h-7l-10-5-5-6-1-4-41-1z" fill="#2198AF"/>
<path transform="translate(440,528)" d="m0 0h5l2 2v6l-3 3h-5l-3-3 1-6z" fill="#1C5A8F"/>
<path transform="translate(526,348)" d="m0 0h7l2 2v6l-3 2h-6l-3-4 2-5z" fill="#164176"/>
<path transform="translate(538,698)" d="m0 0 5 2 1 6-2 3-5 1-4-3 1-7z" fill="#1B598C"/>
<path transform="translate(501,296)" d="m0 0 5 2 1 1v6l-2 2h-6l-3-3 1-6z" fill="#163E73"/>
<path transform="translate(456,294)" d="m0 0 6 2 1 6-3 3h-6l-3-4 2-5z" fill="#163E72"/>
<path transform="translate(796,144)" d="m0 0h7l2 2h-8l-6 8 28 1 3 2h-34v-3z" fill="#1E709C"/>
<path transform="translate(471,649)" d="m0 0h1v47l-4-2-11-11 1-3v2h2l7 8 3 2v-38z" fill="#2198AE"/>
<path transform="translate(783,147)" d="m0 0h2l-2 4-4 3-3 1h-21l-32-1-2-3 3 1 46 1 9-2 3-1z" fill="#1D6697"/>
<path transform="translate(599,7)" d="m0 0h84v1l-83 1-1 2z" fill="#1E84A7"/>
<path transform="translate(466,478)" d="m0 0v3l-6 6-1 31-1 7h-1v-38l4-5z" fill="#1F7BA2"/>
<path transform="translate(662,501)" d="m0 0 4 4 4 7 8 10 7 11-1 2-14-18-9-12z" fill="#2297B3"/>
<path transform="translate(802,84)" d="m0 0h11l4 2-1 2-4-1-11 3-4 8 1 11-3-3v-11l3-5 3-3z" fill="#122A62"/>
<path transform="translate(686,534)" d="m0 0 6 5 3 1 2-4 1 5v10l-4-2-6-8z" fill="#1C9495"/>
<path transform="translate(887,803)" d="m0 0h58v1l-35 1h-22l-1 2z" fill="#1D709B"/>
<path transform="translate(494,501)" d="m0 0h6l5 5-1 5-5 4-7-1-3-4 1-4h1l2 6h5l3-3v-3l-2-1v-2l-9 2z" fill="#1F7B9F"/>
<path transform="translate(1062,154)" d="m0 0 4 2 11 23 7 18-1 3-10-24-1-5h-2l-8-15z" fill="#2299B2"/>
<path transform="translate(524,627)" d="m0 0h5l3 4-2 5-1 1h-5l-2-2v-6z" fill="#22819F"/>
<path transform="translate(1098,345)" d="m0 0h1l-1 13-3 16h-1l1-13 2-12-9 4h-10l-8-4 2-1 8 3 10-1z" fill="#1F91A2"/>
<path transform="translate(716,469)" d="m0 0 12 1-1 3-7 4-5 2-1-1v-7z" fill="#27A0BE"/>
<path transform="translate(434,780)" d="m0 0h6l3 3-1 4-2 2-7-1-1-5z" fill="#1E6C9A"/>
<path transform="translate(943,363)" d="m0 0 4 2 16 16-1 2-16-16-2-1-6 17-3 6-1-3 6-15z" fill="#2199AA"/>
<path transform="translate(1100,294)" d="m0 0h1v25l-7-6-5-2h-13l-6 2 3-3 5-2h9l9 4 4 3z" fill="#1E949D"/>
<path transform="translate(942,248)" d="m0 0h38v1l-36 2-1 4-1-3-2-1z" fill="#2294B4"/>
<path transform="translate(797,145)" d="m0 0 11 2v1h-9l-1 6h5v1h-13l6-9z" fill="#122860"/>
<path transform="translate(452,758)" d="m0 0h1v15l-2 5-1 12-2 1v-12l-3-4v-3l6-1z" fill="#1E6F9B"/>
<path transform="translate(559,510)" d="m0 0h1l1 20-13 12-5 5-2-1 8-8 1-3 7-6 1-2z" fill="#2195B2"/>
<path transform="translate(474,757)" d="m0 0h6l2 2v5l-2 2h-5l-2-2z" fill="#1D6797"/>
<path transform="translate(949,296)" d="m0 0h20l2 6-3-3v-2l-15 1-1 1v8l13 13-1 2-12-12-2-1z" fill="#229BAF"/>
<path transform="translate(634,467)" d="m0 0h20v1l-13 2 1 5 1 4-5-3-4-7z" fill="#1F7DA6"/>
<path transform="translate(493,739)" d="m0 0h1v36h-1l-1-10h-1l-1-11h2v-12z" fill="#1D5792"/>
<path transform="translate(498,604)" d="m0 0h5l3 2-3 5-3 3h-4l-1-5z" fill="#269FBD"/>
<path transform="translate(427,608)" d="m0 0h1v15l-3 7h-1v-18l3-1z" fill="#257097"/>
<path transform="translate(1019,172)" d="m0 0 2 1v2l-9 6-4 8h-11v-1l7-1 8-10z" fill="#2197B0"/>
<path transform="translate(1268,696)" d="m0 0h1l-1 10-2 5-9 5h-5l4-3 5-3 1-2h2l2-5z" fill="#054230"/>
<path transform="translate(492,624)" d="m0 0 2 2-18 18-1-3z" fill="#2397B6"/>
<path transform="translate(696,516)" d="m0 0h1l1 9v13h-2l-1 2-4-1-1-2 4-2 1-2z" fill="#2088AC"/>
<path transform="translate(828,702)" d="m0 0 3 1v3l-5 4-1 2v8l-5-5 2-4z" fill="#13636B"/>
<path transform="translate(112,1255)" d="m0 0 2 1-1 12h17l12 1v1h-15l-15-1v-11l-2-1z" fill="#1D6594"/>
<path transform="translate(861,769)" d="m0 0h25l-1 2-21 1-1 2-2-2z" fill="#1C5B90"/>
<path transform="translate(726,561)" d="m0 0h20v1l-24 3-9 2 1-2z" fill="#2099A8"/>
<path transform="translate(963,204)" d="m0 0h24l-1 2h-11l-16 2v-2z" fill="#219AAC"/>
<path transform="translate(948,336)" d="m0 0h1v10l3 5 10 10-1 2-15-15z" fill="#1F98A4"/>
<path transform="translate(1046,478)" d="m0 0h2l-2 5-3 6-4 3-1-3 3-5z" fill="#116B5C"/>
<path transform="translate(916,203)" d="m0 0h20v1l-14 1 1 7-4-2-3-5z" fill="#1E7CA6"/>
<path transform="translate(800,85)" d="m0 0h2l-2 4-3 3-1 3v14l-2-2-1-3v-7l3-8z" fill="#1C6594"/>
<path transform="translate(444,601)" d="m0 0h2l-2 4-4 5-1 5-1 14h-1v-20z" fill="#1E7CA6"/>
<path transform="translate(425,797)" d="m0 0 5 1v8l-3 2-2-4z" fill="#1D5E95"/>
<path transform="translate(427,623)" d="m0 0h1v9l-1 6h-2l-1 3v-11z" fill="#1E7CA8"/>
<path transform="translate(1038,118)" d="m0 0 4 1 8 11-1 2-3-1-8-12z" fill="#2297B1"/>
<path transform="translate(338,1161)" d="m0 0 2 1-15 15v-3l9-10z" fill="#195075"/>
<path transform="translate(448,566)" d="m0 0 1 4-1 17-2-3v-16z" fill="#257097"/>
<path transform="translate(939,122)" d="m0 0 8 2-4 1h-7l-6 1v2l-4-1 4-4z" fill="#1E6396"/>
<path transform="translate(472,643)" d="m0 0 1 2-2 9v8l-2 2-1-13 3-7z" fill="#2189AD"/>
<path transform="translate(1062,636)" d="m0 0 4 2 5 4v3l-5-1-4-5z" fill="#10785D"/>
<path transform="translate(986,541)" d="m0 0 2 1-12 9h-2l1-4 4-3 4-1z" fill="#187F80"/>
<path transform="translate(462,747)" d="m0 0 2 1v2l6-1-4 8-1-3-3-1z" fill="#1D6898"/>
<path transform="translate(1135,603)" d="m0 0 7 1 2 5h-6l-3-3z" fill="#0C5E4E"/>
<path transform="translate(927,125)" d="m0 0m-1 1m-1 1 3 2-5 5-4 7-1-3 2-6z" fill="#1F7EA2"/>
<path transform="translate(430,694)" d="m0 0 7 6 5 6-4-1-7-6z" fill="#2399B4"/>
<path transform="translate(1083,717)" d="m0 0h2l-1 3-7 3h-9l4-2 9-3z" fill="#033F28"/>
<path transform="translate(465,625)" d="m0 0h2l-1 4-6 5-3 1 2-4z" fill="#2193B0"/>
<path transform="translate(441,531)" d="m0 0 3 1 2 6-7 1-2-3 7 1v-2l-4 1z" fill="#1E6197"/>
<path transform="translate(1087,209)" d="m0 0 2 4 2 8h-11v-1l7-2z" fill="#1F96A4"/>
<path transform="translate(857,161)" d="m0 0 4 1 4 6-6-1v-2l-4-2z" fill="#1D6293"/>
<path transform="translate(662,501)" d="m0 0 4 4 3 5v2l-4-2-4-5z" fill="#2197B0"/>
<path transform="translate(743,1157)" d="m0 0 2 1-10 9-4 3 2-5 8-7z" fill="#1A547B"/>
<path transform="translate(489,766)" d="m0 0 1 2-5 6h-3v12h-1v-13l6-4z" fill="#1F83A1"/>
<path transform="translate(998,529)" d="m0 0m3 0 2 1-9 8h-2l1-4 4-3h2z" fill="#187A7E"/>
<path transform="translate(883,20)" d="m0 0 6 1-1 2-6 2-5 5 2-5z" fill="#122860"/>
<path transform="translate(1040,174)" d="m0 0 8 6 2 4-4-1-8-8z" fill="#2297B2"/>
<path transform="translate(1473,1162)" d="m0 0 2 1-13 13v-3l5-6z" fill="#194C74"/>
<path transform="translate(950,325)" d="m0 0 7 6-1 2-2-2-4-1v6h-1v-9z" fill="#219AA9"/>
<path transform="translate(423,778)" d="m0 0h3v9l1 4-2-1v-2h-2z" fill="#1E7A9E"/>
<path transform="translate(1090,710)" d="m0 0 1 3-5 7-2-1 3-7z" fill="#115E65"/>
<path transform="translate(517,431)" d="m0 0 1 2-1 2h-2v3h-3l-1 3h-2l1-4z" fill="#1A4580"/>
<path transform="translate(959,154)" d="m0 0h7l3 2-8 2-3 3z" fill="#1F7CA5"/>
<path transform="translate(47,1207)" d="m0 0 2 1-10 10v-3l5-6z" fill="#195176"/>
</svg>
